<svg xmlns="http://www.w3.org/2000/svg" width="1920" height="1260" viewBox="0 0 1920 1260">
  <defs>
    <style>
      .cls-1 {
        fill-rule: evenodd;
      }
    </style>
  </defs>
  <path id="Color_Fill_1" data-name="Color Fill 1" class="cls-1" d="M0,0H1920V793c-56.69.108-111.61-2.868-165-3v-1c41.14-101.348-47.02-156.635-135-112l-6-4c2.47-21.939,5.57-39.413-4-55l-58-12-50-1c-63.39-9.578-134.82-1-202-1l-121,1c-50.06,7.627-115.74-6.586-148,18-0.43,41.166-.54,94.542,7,132q6,25,12,50h-33l-36-4-55-11-82,11-65,4-26-12c-22.647-6.569-52.552,3.506-66,7l-59,2-32-5-95,2-68-9-60,14c-12.074,2.407-23.73-4.942-33-7l-67-3c-58.146,9.666-132.422,3-199,3-23.7,0-57.846,11.638-74,7V0ZM1679,694c69.18-1.654,62.15,78.035,24,105-38.96.47-80.44,11.563-102-7q4.005-12.5,8-25,8.505-10,17-20c5.32-16.062,5.97-33.275,20-43C1655.62,697.332,1666.42,698.805,1679,694Z"/>
</svg>
